<?xml version="1.0" encoding="iso-8859-1"?>
<!-- Uploaded to: SVG Repo, www.svgrepo.com, Generator: SVG Repo Mixer Tools -->
<svg version="1.1" id="Layer_1" xmlns="http://www.w3.org/2000/svg" xmlns:xlink="http://www.w3.org/1999/xlink" 
	 viewBox="0 0 512 512" xml:space="preserve">
<rect x="153.355" y="283.826" style="fill:#88DEE0;" width="205.301" height="211.478"/>
<rect x="256" y="283.826" style="fill:#10C7C5;" width="102.645" height="211.478"/>
<rect x="117.983" y="233.739" style="fill:#C7EAF0;" width="276.035" height="99.907"/>
<rect x="256" y="233.739" style="fill:#88DEE0;" width="138.017" height="99.907"/>
<rect y="478.609" style="fill:#FF648D;" width="512" height="33.391"/>
<rect x="256" y="478.609" style="fill:#FD387E;" width="256" height="33.391"/>
<circle style="fill:#FBAC50;" cx="256" cy="91.826" r="91.826"/>
<path style="fill:#F78750;" d="M347.826,91.826c0,50.715-41.111,91.826-91.826,91.826c0-43.409,0-163.617,0-183.652
	C306.715,0,347.826,41.111,347.826,91.826z"/>
<path style="fill:#EBECEC;" d="M275.288,78.159c0,0-7.98-4.912-15.656-6.242v9.209c1.228,0.307,2.559,0.819,4.094,1.228
	c13.403,4.195,21.896,8.903,21.896,22.511c0,16.167-12.073,22.203-24.557,23.022v12.382h-8.185v-12.586
	c-9.311-0.818-19.236-3.888-26.502-8.185L234.973,102c0,0,9.517,6.242,19.338,7.674v-9.005c-2.046-0.512-4.093-1.126-6.344-1.944
	c-12.79-4.297-18.418-9.72-18.418-20.362c0-14.632,10.539-22.921,23.329-24.353V43.676h8.185v10.437
	c8.903,1.023,17.191,4.808,22.817,7.572L275.288,78.159z M254.312,79.387V71.61c-2.558,0.306-4.093,1.432-4.093,3.478
	C250.219,77.135,251.651,78.26,254.312,79.387z M259.632,102.409v7.571c3.275-0.306,4.502-1.432,4.502-3.171
	C264.135,104.864,262.396,103.534,259.632,102.409z"/>
</svg>